<svg width="0" height="0" class="hidden">
  <symbol viewBox="0 0 32 32" xmlns="http://www.w3.org/2000/svg" id="fb">
    <path d="M31.997 16c0-8.837-7.162-16-15.998-16C7.163 0 0 7.163 0 16c0 7.984 5.85 14.603 13.499 15.803V20.624H9.437v-4.625H13.5v-3.524c0-4.011 2.389-6.226 6.042-6.226 1.751 0 3.582.312 3.582.312V10.5h-2.016c-1.987 0-2.607 1.233-2.607 2.498V16h4.437l-.709 4.625H18.5v11.179c7.648-1.2 13.499-7.819 13.499-15.804h-.002z"
      fill="#fff" fill-opacity=".6"></path>
  </symbol>
  <symbol viewBox="0 0 32 32" xmlns="http://www.w3.org/2000/svg" id="instagram">
     <path d="M21 16a5 5 0 1 1-10 0c0-.285.03-.563.082-.833H9.333v6.661c0 .464.375.839.839.839H21.83a.838.838 0 0 0 .837-.839v-6.661h-1.749c.052.27.082.548.082.833zm-5 3.333a3.334 3.334 0 1 0-.001-6.667A3.334 3.334 0 0 0 16 19.333zm4-6.833h1.998a.502.502 0 0 0 .502-.5v-1.998a.502.502 0 0 0-.502-.502H20a.501.501 0 0 0-.502.502V12c.002.275.227.5.502.5zM16 0a16 16 0 1 0 0 32 16 16 0 0 0 0-32zm8.333 22.482a1.857 1.857 0 0 1-1.851 1.851H9.518a1.857 1.857 0 0 1-1.851-1.851V9.518c0-1.018.833-1.851 1.851-1.851h12.964c1.018 0 1.851.833 1.851 1.851v12.964z"
      fill="#fff" fill-opacity=".6"></path>
  </symbol>
  <symbol viewBox="0 0 35 42" xmlns="http://www.w3.org/2000/svg" id="logo-html">
    <g clip-path="url(#clip0)" filter="url(#filter0_d)">
      <path d="M17.62.017L17.472 0 4 1.408v24.596L17.473 34l13.43-7.969.042-.025V1.408L17.62.017zm11.399 12.078L17.495 5.32l-.001-.104-.087.05-.088-.056v.109L5.925 12.086V3.139l11.548-1.21L29.02 3.14v8.956h-.001zM17.405 6.769l11.518 6.695-4.479 2.633-7.093-4.21-.014 1.412 5.904 3.503-.86.506-5.03-2.984-.014 1.411 3.827 2.27-.782.521-3.031-1.782-.014 1.409 1.853 1.088-1.8 1.078-11.356-6.733 11.371-6.817zm-11.48 8.318l11.411 6.773.016 1.041-7.942-4.715-.015 1.412 7.979 4.783.018 1.073-7.973-4.728-.013 1.41 8.021 4.81.046.025 8.143-4.86-.011-5.163 3.415-2.03v9.994l-11.548 6.854-11.547-6.853v-9.826z"
        fill="#F0C52E"></path>
    </g>
    <defs>
      <filter id="filter0_d" x="0" y="0" width="34.943" height="42" filterUnits="userSpaceOnUse" color-interpolation-filters="sRGB">
        <feFlood flood-opacity="0" result="BackgroundImageFix"></feFlood>
        <feColorMatrix in="SourceAlpha" values="0 0 0 0 0 0 0 0 0 0 0 0 0 0 0 0 0 0 127 0"></feColorMatrix>
        <feOffset dy="4"></feOffset>
        <feGaussianBlur stdDeviation="2"></feGaussianBlur>
        <feColorMatrix values="0 0 0 0 0 0 0 0 0 0 0 0 0 0 0 0 0 0 0.25 0"></feColorMatrix>
        <feBlend in2="BackgroundImageFix" result="effect1_dropShadow"></feBlend>
        <feBlend in="SourceGraphic" in2="effect1_dropShadow" result="shape"></feBlend>
      </filter>
      <clipPath id="clip0">
        <path fill="#fff" transform="translate(4)" d="M0 0h26.943v34H0z"></path>
      </clipPath>
    </defs>
  </symbol>
  <symbol viewBox="0 0 32 32" xmlns="http://www.w3.org/2000/svg" id="twitter">
    <path d="M16 32c-2.167 0-4.24-.422-6.219-1.266-1.979-.843-3.682-1.979-5.11-3.406-1.426-1.427-2.562-3.13-3.405-5.11A15.697 15.697 0 0 1 0 16c0-2.167.422-4.24 1.266-6.219.843-1.979 1.979-3.682 3.406-5.11 1.427-1.426 3.13-2.562 5.11-3.405A15.696 15.696 0 0 1 16 0c2.167 0 4.24.422 6.219 1.266 1.979.843 3.682 1.979 5.11 3.406 1.426 1.427 2.562 3.13 3.405 5.11A15.697 15.697 0 0 1 32 16c0 2.167-.422 4.24-1.266 6.219-.843 1.979-1.979 3.682-3.406 5.11-1.427 1.426-3.13 2.562-5.11 3.405A15.698 15.698 0 0 1 16 32zm9.406-24a5.912 5.912 0 0 0-.562.344l-.61.406-.578.313L23 9.28C22.23 8.427 21.281 8 20.156 8 17.72 8 16.5 9.02 16.5 11.063v1.843c-3.354-.166-5.927-1.396-7.719-3.687C8.261 9.76 8 10.354 8 11c0 1.375.51 2.417 1.531 3.125-.125 0-.302.01-.531.031-.23.021-.411.021-.547 0A1.566 1.566 0 0 1 8 14c0 .958.255 1.755.766 2.39.51.636 1.213 1.047 2.109 1.235-.208.25-.5.375-.875.375-.333 0-.625-.094-.875-.281 0 .812.39 1.442 1.172 1.89.781.448 1.661.683 2.64.703-.374.563-.921.985-1.64 1.266A6.246 6.246 0 0 1 9 22c-.292 0-.693-.073-1.203-.219A16.21 16.21 0 0 0 7 21.563c.333.666 1.016 1.24 2.047 1.718 1.031.48 2.338.719 3.922.719 1.396 0 2.698-.245 3.906-.734 1.208-.49 2.24-1.141 3.094-1.953a12.776 12.776 0 0 0 2.203-2.782 13.08 13.08 0 0 0 1.375-3.234C23.849 14.182 24 13.083 24 12c0-.042.125-.13.375-.266.25-.135.542-.317.875-.546.333-.23.583-.47.75-.72-1.125 0-1.875.022-2.25.063.73-.437 1.281-1.281 1.656-2.531z"
      fill="#fff" fill-opacity=".6"></path>
  </symbol>
</svg>